<svg xmlns="http://www.w3.org/2000/svg" xmlns:xlink="http://www.w3.org/1999/xlink" width="644pt" height="372" viewBox="0 0 643.53 279"><g id="graph0" class="graph" transform="scale(1 1) rotate(0) translate(4 275)"><polygon fill="#fff" stroke="transparent" points="-4 4 -4 -275 639.53 -275 639.53 4 -4 4"/><g id="clust1" class="cluster"><title>cluster_validator</title><polygon fill="none" stroke="#000" points="8 -8 8 -155 298 -155 298 -8 8 -8"/><text x="153" y="-139.8" font-family="Times,serif" font-size="14" text-anchor="middle">Validator</text></g><g id="node1" class="node"><title>db</title><ellipse cx="168" cy="-34" fill="none" stroke="#000" rx="53.89" ry="18"/><text x="168" y="-30.3" font-family="Times,serif" font-size="14" text-anchor="middle">Database</text></g><g id="node2" class="node"><title>worker</title><ellipse cx="102" cy="-106" fill="none" stroke="#000" rx="85.59" ry="18"/><text x="102" y="-102.3" font-family="Times,serif" font-size="14" text-anchor="middle">validatorWorker</text></g><g id="edge1" class="edge"><title>worker--db</title><path fill="none" stroke="#000" d="M117.98,-88.05C128.51,-76.89 142.22,-62.34 152.62,-51.31"/></g><g id="node3" class="node"><title>sentry</title><ellipse cx="248" cy="-106" fill="none" stroke="#000" rx="42.49" ry="18"/><text x="248" y="-102.3" font-family="Times,serif" font-size="14" text-anchor="middle">Sentry</text></g><g id="edge2" class="edge"><title>sentry--db</title><path fill="none" stroke="#000" d="M230.25,-89.46C217.17,-78.03 199.45,-62.52 186.26,-50.98"/></g><g id="node5" class="node"><title>ethereum</title><polygon fill="none" stroke="#000" points="471 -52 306.44 -34 471 -16 635.56 -34 471 -52"/><text x="471" y="-30.3" font-family="Times,serif" font-size="14" text-anchor="middle">the Ethereum network</text></g><g id="edge7" class="edge"><title>sentry--ethereum</title><path fill="none" stroke="#000" d="M280.9,-94.67C320.76,-82.16 387.89,-61.09 430.78,-47.62"/></g><g id="node4" class="node"><title>market</title><ellipse cx="248" cy="-181" fill="none" stroke="#000" rx="44.39" ry="18"/><text x="248" y="-177.3" font-family="Times,serif" font-size="14" text-anchor="middle">Market</text></g><g id="edge3" class="edge"><title>market--sentry</title><path fill="none" stroke="#000" d="M248,-162.7C248,-151.06 248,-135.79 248,-124.18"/></g><g id="node6" class="node"><title>platform</title><polygon fill="none" stroke="#000" points="370.5 -271 291.5 -271 291.5 -235 370.5 -235 370.5 -271"/><text x="331" y="-249.3" font-family="Times,serif" font-size="14" text-anchor="middle">Platform</text></g><g id="edge5" class="edge"><title>platform--sentry</title><path fill="none" stroke="#000" d="M327.58,-235C323.32,-216.36 314.87,-186.06 301,-163 291.69,-147.51 277.46,-132.79 266.09,-122.33"/></g><g id="edge4" class="edge"><title>platform--market</title><path fill="none" stroke="#000" d="M310.48,-234.7C296.95,-223.28 279.37,-208.45 266.3,-197.44"/></g><g id="edge6" class="edge"><title>platform--ethereum</title><path fill="none" stroke="#000" d="M341.99,-234.97C368.35,-194.11 434.92,-90.92 460.64,-51.06"/></g><g id="node7" class="node"><title>AdView</title><polygon fill="none" stroke="#000" points="273 -271 203 -271 203 -235 273 -235 273 -271"/><text x="238" y="-249.3" font-family="Times,serif" font-size="14" text-anchor="middle">AdView</text></g><g id="edge8" class="edge"><title>AdView--market</title><path fill="none" stroke="#000" d="M240.47,-234.7C242.02,-223.85 244.01,-209.92 245.56,-199.1"/></g></g></svg>