<svg xmlns="http://www.w3.org/2000/svg" xmlns:xlink="http://www.w3.org/1999/xlink" width="1180" height="276" viewBox="0 0 884.53 207"><g id="graph0" class="graph" transform="scale(1 1) rotate(0) translate(4 203)"><title>%3</title><polygon fill="#fff" stroke="transparent" points="-4 4 -4 -203 880.529 -203 880.529 4 -4 4"/><g id="clust1" class="cluster"><title>cluster_adexNetwork</title><polygon fill="none" stroke="#000" points="8 -8 8 -155 499 -155 499 -8 8 -8"/><text x="253.5" y="-139.8" fill="#000" font-family="Times,serif" font-size="14" text-anchor="middle">The AdEx Network (many validators and markets can exist)</text></g><g id="node1" class="node"><title>vstack1</title><ellipse cx="438" cy="-106" fill="none" stroke="#000" rx="52.791" ry="18"/><text x="438" y="-102.3" fill="#000" font-family="Times,serif" font-size="14" text-anchor="middle">Validator</text></g><g id="node5" class="node"><title>market</title><ellipse cx="315" cy="-34" fill="none" stroke="#000" rx="44.693" ry="18"/><text x="315" y="-30.3" fill="#000" font-family="Times,serif" font-size="14" text-anchor="middle">Market</text></g><g id="edge1" class="edge"><title>vstack1--market</title><path fill="none" stroke="#000" d="M411.3108,-90.3771C390.2557,-78.0521 361.0838,-60.9759 340.3761,-48.8543"/></g><g id="node2" class="node"><title>vstack2</title><ellipse cx="315" cy="-106" fill="none" stroke="#000" rx="52.791" ry="18"/><text x="315" y="-102.3" fill="#000" font-family="Times,serif" font-size="14" text-anchor="middle">Validator</text></g><g id="edge2" class="edge"><title>vstack2--market</title><path fill="none" stroke="#000" d="M315,-87.8314C315,-77 315,-63.2876 315,-52.4133"/></g><g id="node3" class="node"><title>vstack3</title><ellipse cx="192" cy="-106" fill="none" stroke="#000" rx="52.791" ry="18"/><text x="192" y="-102.3" fill="#000" font-family="Times,serif" font-size="14" text-anchor="middle">Validator</text></g><g id="edge3" class="edge"><title>vstack3--market</title><path fill="none" stroke="#000" d="M218.6892,-90.3771C239.7443,-78.0521 268.9162,-60.9759 289.6239,-48.8543"/></g><g id="node4" class="node"><title>vstack4</title><ellipse cx="69" cy="-106" fill="none" stroke="#000" rx="52.791" ry="18"/><text x="69" y="-102.3" fill="#000" font-family="Times,serif" font-size="14" text-anchor="middle">Validator</text></g><g id="edge4" class="edge"><title>vstack4--market</title><path fill="none" stroke="#000" d="M109.0263,-94.1707C116.0164,-92.1101 123.2193,-89.99 130,-88 181.5273,-72.8774 241.1622,-55.4914 278.4847,-44.6242"/></g><g id="node6" class="node"><title>ethereum</title><polygon fill="none" stroke="#000" points="712 -124 547.442 -106 712 -88 876.558 -106 712 -124"/><text x="712" y="-102.3" fill="#000" font-family="Times,serif" font-size="14" text-anchor="middle">the Ethereum network</text></g><g id="node7" class="node"><title>dapp</title><ellipse cx="478" cy="-181" fill="none" stroke="#000" rx="35.194" ry="18"/><text x="478" y="-177.3" fill="#000" font-family="Times,serif" font-size="14" text-anchor="middle">dApp</text></g><g id="edge6" class="edge"><title>dapp--vstack1</title><path fill="none" stroke="#000" stroke-dasharray="5 2" d="M468.7227,-163.605C462.3529,-151.6616 453.9229,-135.8554 447.5048,-123.8215"/></g><g id="edge7" class="edge"><title>dapp--vstack3</title><path fill="none" stroke="#000" stroke-dasharray="5 2" d="M442.9821,-179.322C388.5636,-176.3188 286.4692,-168.9887 253,-155 235.9548,-147.8758 219.8043,-134.492 208.4085,-123.51"/></g><g id="edge5" class="edge"><title>dapp--market</title><path fill="none" stroke="#000" stroke-width="2" d="M494.366,-165.0589C496.6725,-161.9551 498.6984,-158.5534 500,-155 510.2423,-127.0391 517.8642,-111.8241 500,-88 482.8884,-65.1796 406.5083,-48.8036 357.3975,-40.4104"/></g><g id="edge8" class="edge"><title>dapp--ethereum</title><path fill="none" stroke="#000" d="M508.1124,-171.3486C549.2168,-158.1741 623.0995,-134.4938 669.7355,-119.5463"/></g></g></svg>
